<?xml version="1.0" encoding="utf-8"?>
<!-- Generator: Adobe Illustrator 27.2.0, SVG Export Plug-In . SVG Version: 6.00 Build 0)  -->
<svg version="1.1" id="Laag_1" xmlns="http://www.w3.org/2000/svg" xmlns:xlink="http://www.w3.org/1999/xlink" x="0px" y="0px"
	 viewBox="0 0 95.5 39.1" style="enable-background:new 0 0 95.5 39.1;" xml:space="preserve">
<style type="text/css">
	.st0{fill:#008ACF;}
	.st1{fill:#EF7D00;}
</style>
<g>
	<g>
		<path class="st0" d="M79.7,5.5C71,5.5,64,12.6,64,21.2c0,8.7,7.1,15.7,15.8,15.7s15.8-7,15.8-15.7C95.5,12.6,88.4,5.5,79.7,5.5z
			 M79.7,30.6c-5.2,0-9.4-4.2-9.4-9.4c0-5.2,4.2-9.4,9.4-9.4c5.2,0,9.4,4.2,9.4,9.4C89.2,26.4,84.9,30.6,79.7,30.6z"/>
		<path class="st0" d="M14.6,6.2H4.8H0v30.1h6.3v-8.7h8.2c5.9,0,10.8-4.8,10.8-10.7C25.3,11,20.5,6.2,14.6,6.2z M14.6,21.3H6.3v-8.8
			h8.2c2.4,0,4.4,2,4.4,4.4S17,21.3,14.6,21.3L14.6,21.3z"/>
		<path class="st0" d="M55.7,6.2L45.6,24.8L35.4,6.2h-7.8l18,32.9l18-32.9H55.7z"/>
		<path class="st1" d="M55.7,0L45.6,18.6L35.4,0H55.7z"/>
	</g>
</g>
</svg>
