<svg version="1.1" id="Layer_1" xmlns="http://www.w3.org/2000/svg" xmlns:xlink="http://www.w3.org/1999/xlink" x="0px" y="0px"
	 width="100%" viewBox="0 0 1080 1080" enable-background="new 0 0 1080 1080" xml:space="preserve">
<path fill="#F7B0BE" opacity="1.000000" stroke="none" 
	d="
M541.000000,1.000000 
	C720.929504,1.000000 900.859070,1.000000 1081.000000,1.000000 
	C1081.000000,180.692444 1081.000000,360.384979 1080.531372,540.534729 
	C904.207825,540.991028 728.352844,540.989624 552.497925,540.994690 
	C550.667786,540.994751 548.837646,541.079834 546.586060,541.087280 
	C544.475769,540.994446 542.786926,540.939636 540.968140,540.691040 
	C540.638062,540.248230 540.390259,540.062927 540.049805,539.712036 
	C540.004883,539.482788 539.912598,539.024719 539.945007,538.581543 
	C540.007446,535.771729 540.037476,533.405151 540.331177,530.713989 
	C540.734985,528.741699 540.997803,527.093994 540.997925,525.446350 
	C541.011414,350.630890 541.005127,175.815445 541.000000,1.000000 
z"/>
<path fill="#172629" opacity="1.000000" stroke="none" 
	d="
M541.000000,1081.000000 
	C361.070557,1081.000000 181.141098,1081.000000 1.000000,1081.000000 
	C1.000000,901.974243 1.000000,722.948364 1.468526,543.448608 
	C173.888031,542.970581 345.838989,542.981812 517.789917,542.886475 
	C522.857117,542.883667 527.923584,541.758240 533.392212,541.086731 
	C534.875244,541.063293 535.956543,541.109436 537.261536,541.361450 
	C538.275024,541.728149 539.064758,541.888977 540.065552,542.415833 
	C540.519775,544.548523 540.975708,546.315186 540.976013,548.081909 
	C541.006287,725.721252 541.002075,903.360657 541.000000,1081.000000 
z"/>
<path fill="#A68B9C" opacity="1.000000" stroke="none" 
	d="
M541.467834,1081.000000 
	C541.002075,903.360657 541.006287,725.721252 540.976013,548.081909 
	C540.975708,546.315186 540.519775,544.548523 540.125488,542.167725 
	C539.966675,541.383850 539.958862,541.214172 540.238281,541.007935 
	C540.716309,540.942627 540.907166,540.913696 541.098083,540.884827 
	C542.786926,540.939636 544.475769,540.994446 546.727905,541.446167 
	C549.491821,542.227844 551.692261,542.948975 553.893005,542.949646 
	C729.595337,543.002563 905.297668,542.999207 1081.000000,543.000000 
	C1081.000000,722.260803 1081.000000,901.521667 1081.000000,1081.000000 
	C901.311951,1081.000000 721.623779,1081.000000 541.467834,1081.000000 
z"/>
<path fill="#F96D90" opacity="1.000000" stroke="none" 
	d="
M540.067505,531.038574 
	C540.037476,533.405151 540.007446,535.771729 539.762268,538.705566 
	C539.318726,539.466492 539.132812,539.694763 538.522339,539.967346 
	C536.056946,539.977112 534.058655,539.977295 532.060364,539.977417 
	C355.040253,539.984985 178.020126,539.992493 1.000000,540.000000 
	C1.000000,360.404633 1.000000,180.809296 1.000000,1.000000 
	C180.024033,1.000000 359.048157,1.000000 538.536133,1.468657 
	C539.000000,175.898270 538.995667,349.859222 539.044312,523.820190 
	C539.044983,526.226379 539.711731,528.632446 540.067505,531.038574 
z"/>
<path fill="#B18797" opacity="1.000000" stroke="none" 
	d="
M1081.000000,542.666687 
	C905.297668,542.999207 729.595337,543.002563 553.893005,542.949646 
	C551.692261,542.948975 549.491821,542.227844 547.149353,541.484131 
	C548.837646,541.079834 550.667786,540.994751 552.497925,540.994690 
	C728.352844,540.989624 904.207825,540.991028 1080.531372,540.995972 
	C1081.000000,541.444458 1081.000000,541.888916 1081.000000,542.666687 
z"/>
<path fill="#EC7490" opacity="1.000000" stroke="none" 
	d="
M540.331177,530.713989 
	C539.711731,528.632446 539.044983,526.226379 539.044312,523.820190 
	C538.995667,349.859222 539.000000,175.898270 539.000000,1.468657 
	C539.444458,1.000000 539.888916,1.000000 540.666687,1.000000 
	C541.005127,175.815445 541.011414,350.630890 540.997925,525.446350 
	C540.997803,527.093994 540.734985,528.741699 540.331177,530.713989 
z"/>
<path fill="#421124" opacity="1.000000" stroke="none" 
	d="
M532.990417,541.156250 
	C527.923584,541.758240 522.857117,542.883667 517.789917,542.886475 
	C345.838989,542.981812 173.888031,542.970581 1.468526,542.987366 
	C1.000000,542.555542 1.000000,542.111084 1.467854,541.333313 
	C177.125290,541.000000 352.314880,540.999512 527.504456,541.006470 
	C529.333130,541.006531 531.161743,541.104126 532.990417,541.156250 
z"/>
<path fill="#D37F99" opacity="1.000000" stroke="none" 
	d="
M533.392212,541.086670 
	C531.161743,541.104126 529.333130,541.006531 527.504456,541.006470 
	C352.314880,540.999512 177.125290,541.000000 1.467854,541.000000 
	C1.000000,541.000000 1.000000,540.500000 1.000000,540.250000 
	C178.020126,539.992493 355.040253,539.984985 532.060364,539.977417 
	C534.058655,539.977295 536.056946,539.977112 538.798828,539.970764 
	C539.726440,539.956909 539.910583,539.949158 540.094788,539.941345 
	C540.390259,540.062927 540.638062,540.248230 540.968140,540.691040 
	C540.907166,540.913696 540.716309,540.942627 539.872620,540.982300 
	C538.492432,541.047241 537.765137,541.101379 537.037842,541.155518 
	C535.956543,541.109436 534.875244,541.063293 533.392212,541.086670 
z"/>
<path fill="#EC7490" opacity="1.000000" stroke="none" 
	d="
M540.049805,539.712036 
	C539.910583,539.949158 539.726440,539.956909 539.265869,539.961182 
	C539.132812,539.694763 539.318726,539.466492 539.729858,539.148804 
	C539.912598,539.024719 540.004883,539.482788 540.049805,539.712036 
z"/>
<path fill="#421124" opacity="1.000000" stroke="none" 
	d="
M537.261536,541.361450 
	C537.765137,541.101379 538.492432,541.047241 539.585327,541.018799 
	C539.958862,541.214172 539.966675,541.383850 539.914551,541.801636 
	C539.064758,541.888977 538.275024,541.728149 537.261536,541.361450 
z"/>
</svg>